M48
; DRILL file {KiCad 9.0.2} date 2025-10-01T22:28:37+0300
; FORMAT={-:-/ absolute / metric / decimal}
; #@! TF.CreationDate,2025-10-01T22:28:37+03:00
; #@! TF.GenerationSoftware,Kicad,Pcbnew,9.0.2
; #@! TF.FileFunction,Plated,1,2,PTH
FMAT,2
METRIC
; #@! TA.AperFunction,Plated,PTH,ComponentDrill
T1C0.200
; #@! TA.AperFunction,Plated,PTH,ViaDrill
T2C0.300
; #@! TA.AperFunction,Plated,PTH,ViaDrill
T3C0.400
; #@! TA.AperFunction,Plated,PTH,ComponentDrill
T4C0.400
; #@! TA.AperFunction,Plated,PTH,ComponentDrill
T5C0.550
; #@! TA.AperFunction,Plated,PTH,ComponentDrill
T6C0.850
; #@! TA.AperFunction,Plated,PTH,ComponentDrill
T7C0.900
; #@! TA.AperFunction,Plated,PTH,ComponentDrill
T8C1.000
; #@! TA.AperFunction,Plated,PTH,ComponentDrill
T9C2.200
%
G90
G05
T1
X131.895Y-87.627
X131.895Y-89.152
X132.657Y-86.865
X132.657Y-88.39
X132.657Y-89.915
X133.42Y-87.627
X133.42Y-89.152
X134.183Y-86.865
X134.183Y-88.39
X134.183Y-89.915
X134.945Y-87.627
X134.945Y-89.152
T2
X126.7Y-83.9
X128.4Y-103.5
X133.265Y-106.44
X133.348Y-121.931
X134.1Y-121.9
X134.115Y-106.44
X134.9Y-100.4
X135.7Y-108.71
X135.8Y-100.4
X137.455Y-107.745
X138.6Y-97.4
X138.8Y-85.5
X139.9Y-86.9
X141.7Y-101.3
X146.8Y-111.6
X146.9Y-113.6
X155.8Y-113.1
X156.0Y-106.4
T3
X127.195Y-82.405
X132.1Y-100.9
X137.2Y-113.2
X140.75Y-109.55
X147.2Y-116.2
T4
X107.85Y-78.5
X108.333Y-77.333
X108.333Y-79.667
X109.5Y-76.85
X109.5Y-80.15
X110.667Y-77.333
X110.667Y-79.667
X111.15Y-78.5
X152.85Y-123.5
X153.333Y-122.333
X153.333Y-124.667
X154.5Y-121.85
X154.5Y-125.15
X155.667Y-122.333
X155.667Y-124.667
X156.15Y-123.5
T7
X112.9Y-81.66
X112.9Y-82.93
X112.9Y-84.2
X112.9Y-85.47
X152.69Y-103.0
X152.69Y-109.7
X152.69Y-116.4
X153.96Y-103.0
X153.96Y-109.7
X153.96Y-116.4
X155.23Y-103.0
X155.23Y-109.7
X155.23Y-116.4
X156.5Y-103.0
X156.5Y-109.7
X156.5Y-116.4
T8
X119.6Y-81.8
X119.6Y-84.34
X119.6Y-86.88
X119.6Y-89.42
X119.6Y-91.96
X119.6Y-94.5
X119.6Y-97.04
X119.6Y-99.58
X119.6Y-102.12
X119.6Y-104.66
X119.6Y-107.2
X119.6Y-109.74
X119.6Y-112.28
X119.6Y-114.82
X119.6Y-117.36
X119.6Y-119.9
X148.8Y-81.8
X148.8Y-84.34
X148.8Y-86.88
X148.8Y-89.42
X148.8Y-91.96
X148.8Y-94.5
X148.8Y-97.04
X148.8Y-99.58
X148.8Y-102.12
X148.8Y-104.66
X148.8Y-107.2
X148.8Y-109.74
X148.8Y-112.28
X148.8Y-114.82
X148.8Y-117.36
X148.8Y-119.9
T9
X109.5Y-78.5
X154.5Y-123.5
T5
G00X130.125Y-126.625
M15
G01X130.125Y-127.275
M16
G05
G00X137.875Y-126.625
M15
G01X137.875Y-127.275
M16
G05
T6
G00X130.275Y-122.875
M15
G01X130.275Y-123.425
M16
G05
G00X137.725Y-122.875
M15
G01X137.725Y-123.425
M16
G05
M30
